PathFileType  4	(X/Y/Z) C:\Users\antoi\Documents\MyRepositories\mobilecap\ResultsAnalysis
DataRate	CameraRate	NumFrames	NumMarkers	Units	OrigDataRate	OrigDataStartFrame	OrigNumFrames
100.0	100.0	5	51	mm	100.0	1	278
Frame#	Time	r_knee			r_shank_antsup			r_ankle			r_calc			r_5meta			r_toe			L_knee			L_shank_antsup			L_ankle			L_calc			L_5meta			L_toe			r_sh2			r_sh3			r_sh4			L_sh2			L_sh3			r_thigh1			r_thigh2			r_thigh3			r_thigh4			r_thigh5			L_thigh1			L_thigh2			L_thigh3			L_thigh4			r.ASIS			r.PSIS			L.ASIS			L.PSIS			C7			R_Shoulder			L_Shoulder			R_Sternum			L_Sternum			R_humerus			R_elbow_med			R_elbow_lat			R_forearm			R_wrist_radius			R_wrist_ulna			L_humerus			L_elbow_med			L_elbow_lat			L_forearm			L_wrist_radius			L_wrist_ulna			R_HJC			L_HJC			R_HJC_reg			L_HJC_reg			
		X1	Y1	Z1	X2	Y2	Z2	X3	Y3	Z3	X4	Y4	Z4	X5	Y5	Z5	X6	Y6	Z6	X7	Y7	Z7	X8	Y8	Z8	X9	Y9	Z9	X10	Y10	Z10	X11	Y11	Z11	X12	Y12	Z12	X13	Y13	Z13	X14	Y14	Z14	X15	Y15	Z15	X16	Y16	Z16	X17	Y17	Z17	X18	Y18	Z18	X19	Y19	Z19	X20	Y20	Z20	X21	Y21	Z21	X22	Y22	Z22	X23	Y23	Z23	X24	Y24	Z24	X25	Y25	Z25	X26	Y26	Z26	X27	Y27	Z27	X28	Y28	Z28	X29	Y29	Z29	X30	Y30	Z30	X31	Y31	Z31	X32	Y32	Z32	X33	Y33	Z33	X34	Y34	Z34	X35	Y35	Z35	X36	Y36	Z36	X37	Y37	Z37	X38	Y38	Z38	X39	Y39	Z39	X40	Y40	Z40	X41	Y41	Z41	X42	Y42	Z42	X43	Y43	Z43	X44	Y44	Z44	X45	Y45	Z45	X46	Y46	Z46	X47	Y47	Z47	X48	Y48	Z48	X49	Y49	Z49	X50	Y50	Z50	X51	Y51	Z51	

1	0.00000000	-1213.69553	780.29914	-413.59112	-1182.84567	667.61692	-430.89540	-1258.72279	397.44867	-450.29835	-1307.37512	358.58740	-499.84216	-1144.62304	347.71855	-419.63984	-1109.52099	366.77267	-463.34628	-1211.16393	782.23960	-748.91388	-1175.91537	681.57743	-705.69501	-1261.58664	394.93713	-723.68970	-1305.23511	361.10105	-683.85095	-1138.49438	346.47787	-740.36920	-1101.84485	366.68982	-685.94978	-1196.38408	557.33713	-443.83252	-1237.68980	667.83625	-378.35922	-1267.72495	562.77326	-400.83099	-1225.53477	704.18107	-776.38070	-1240.11219	583.20001	-785.56057	-1115.40418	1076.25535	-428.15399	-1113.13721	967.99716	-423.76682	-1158.84949	942.50314	-379.18244	-1215.88134	1075.07492	-378.69299	-1212.55482	959.85351	-374.59118	-1126.53949	1074.12808	-752.49018	-1122.29030	931.52315	-750.34317	-1232.77965	1071.59008	-792.73867	-1229.59240	930.27146	-780.84133	-1093.25229	1234.44644	-461.19376	-1269.68117	1306.35527	-528.67458	-1089.14232	1235.17634	-706.38810	-1270.98049	1308.45429	-646.66406	-1248.49700	1750.72274	-584.52952	-1197.16719	1714.64053	-431.55946	-1194.59453	1721.07731	-742.78757	-1128.13086	1698.85893	-563.99157	-1126.41666	1695.55675	-607.50281	-1169.22246	1587.40029	-369.77644	-1238.70191	1391.46140	-416.46062	-1206.52893	1395.87102	-349.55433	-1150.17705	1281.16609	-338.61625	-1118.79684	1181.26228	-343.90007	-1149.23106	1175.02034	-321.30629	-1161.56873	1570.96071	-803.43268	-1218.75655	1380.20209	-740.62800	-1199.32689	1389.12653	-816.80272	-1146.36619	1306.46952	-839.84620	-1103.55456	1180.84208	-832.41199	-1130.19610	1174.38360	-850.54925	-1194.15749	1178.31495	-488.20179	-1188.08269	1175.30901	-677.45824	-1173.98456	1175.89333	-495.68224	-1175.76652	1178.77203	-657.49854	
2	0.01000000	-1213.49592	780.37617	-413.64105	-1182.69170	667.49579	-431.05209	-1258.72235	397.65650	-450.21093	-1307.37020	358.59299	-499.80243	-1144.50951	347.91050	-419.15141	-1109.50306	366.80587	-463.39173	-1210.89081	782.28013	-748.81443	-1175.39913	681.41627	-705.44655	-1261.56986	394.84340	-723.58631	-1305.24868	361.07036	-683.80968	-1138.50012	346.47196	-740.36623	-1101.84715	366.67062	-685.97668	-1196.29465	557.21737	-443.91648	-1237.44436	667.86662	-378.47522	-1267.62274	562.65194	-400.96030	-1225.11382	704.14224	-776.07526	-1239.85684	583.30142	-785.46720	-1115.64636	1076.38924	-428.06279	-1115.25619	967.65274	-423.86457	-1158.92000	942.57391	-379.12912	-1216.11164	1074.95344	-378.78409	-1212.64085	959.82774	-374.62680	-1126.88570	1074.03394	-752.51813	-1122.20641	931.74935	-750.53547	-1232.94178	1071.37417	-791.96197	-1229.48745	930.32708	-780.85938	-1093.39864	1234.32527	-461.20395	-1269.70908	1306.51480	-528.48474	-1089.33605	1235.09954	-706.09919	-1271.02935	1308.55518	-646.38621	-1246.71006	1751.17232	-584.92246	-1195.61150	1714.76485	-431.52753	-1193.14545	1721.22656	-742.67013	-1126.58694	1698.73495	-564.04371	-1124.87327	1695.27702	-607.60394	-1168.16281	1587.53088	-369.34280	-1238.89562	1392.00019	-415.79253	-1206.46338	1396.28673	-349.00345	-1151.06108	1281.25594	-337.98300	-1120.61457	1180.97682	-343.10804	-1150.96918	1175.07318	-320.44607	-1160.50558	1571.14576	-803.48495	-1218.64216	1380.77727	-740.76437	-1199.26027	1389.66205	-816.95584	-1146.94239	1306.59623	-840.11777	-1105.29036	1180.45937	-833.10454	-1132.00090	1174.42196	-851.19794	-1194.35660	1178.33597	-488.02311	-1188.34531	1175.34664	-677.28186	-1174.20063	1176.06994	-495.59324	-1176.01041	1178.86690	-657.21283	
3	0.02000000	-1213.26680	780.39984	-413.76728	-1182.47495	667.38184	-431.20277	-1258.75538	397.68566	-450.20731	-1307.37375	358.58844	-499.79678	-1144.45547	348.04801	-418.95330	-1109.52283	366.80018	-463.39246	-1210.42653	782.21183	-748.65769	-1174.89194	681.27557	-705.27124	-1261.58215	394.74038	-723.36740	-1305.25595	361.01979	-683.77670	-1138.50894	346.46293	-740.36987	-1101.88661	366.64661	-686.00552	-1196.16320	557.11597	-444.02105	-1237.29760	667.85879	-378.56015	-1267.50552	562.48743	-401.12243	-1224.72564	704.10324	-775.90329	-1239.53625	583.39308	-785.28126	-1115.88974	1076.47992	-428.05145	-1115.85162	967.94083	-423.67108	-1159.04135	942.72025	-379.05599	-1216.33546	1074.82396	-378.88045	-1212.68520	959.83677	-374.60260	-1127.17610	1074.08753	-752.61166	-1122.10998	931.89989	-750.58431	-1233.17927	1071.21459	-791.50417	-1229.46512	930.29247	-780.83447	-1093.56655	1234.22144	-461.22857	-1269.71438	1306.71630	-528.35528	-1089.56389	1234.99847	-706.04893	-1271.08528	1308.73337	-646.20007	-1244.97966	1751.38829	-584.81924	-1193.94104	1714.93915	-431.40902	-1191.67974	1721.51487	-742.41969	-1125.11700	1698.57216	-563.97855	-1123.39635	1695.10532	-607.49210	-1166.99112	1587.72929	-368.87721	-1239.40901	1392.68283	-414.91346	-1206.48403	1396.86800	-348.36073	-1152.03232	1281.32937	-337.35372	-1122.47080	1180.70193	-342.43947	-1152.80756	1175.16489	-319.49920	-1159.45328	1571.38122	-803.30463	-1218.88278	1381.40635	-740.92652	-1199.26950	1390.25365	-817.06259	-1147.64091	1306.61314	-840.17907	-1107.18945	1180.23398	-833.81330	-1133.94553	1174.39462	-851.86244	-1194.58173	1178.39480	-487.93881	-1188.67198	1175.41129	-677.20085	-1174.45228	1176.16448	-495.55407	-1176.33185	1178.92994	-657.12329	
4	0.03000000	-1212.99300	780.37217	-413.95806	-1182.21806	667.29774	-431.35501	-1258.80462	397.58546	-450.24577	-1307.38441	358.57984	-499.81392	-1144.55054	347.94866	-419.25534	-1109.57215	366.78808	-463.34750	-1209.74896	782.00127	-748.39325	-1174.24786	681.09199	-704.99211	-1261.57817	394.68572	-723.19697	-1305.26504	360.98554	-683.80509	-1138.51542	346.45492	-740.37466	-1101.92236	366.63976	-686.02708	-1196.00296	557.04780	-444.12314	-1237.19565	667.81563	-378.60501	-1267.39043	562.35596	-401.25691	-1224.23030	704.14697	-775.84351	-1239.22235	583.42847	-785.02088	-1116.15658	1076.58993	-428.03224	-1115.90567	968.22126	-423.48929	-1159.15812	942.85700	-378.96227	-1216.56899	1074.64153	-378.96105	-1212.76620	959.82292	-374.55778	-1127.65178	1074.49161	-752.74839	-1122.03857	932.04977	-750.57256	-1233.47606	1071.18167	-791.49798	-1229.46572	930.24588	-780.75310	-1093.75304	1234.10819	-461.21753	-1269.70255	1306.96880	-528.29841	-1089.84846	1234.87225	-706.18025	-1271.18657	1308.97040	-646.04907	-1243.15385	1751.45559	-584.66827	-1192.17337	1715.15762	-431.23101	-1190.11654	1721.88124	-742.09619	-1123.62827	1698.37627	-563.81811	-1121.84544	1695.02572	-607.20983	-1165.76229	1587.88909	-368.59197	-1239.93537	1393.36748	-414.13636	-1206.56012	1397.44974	-347.80127	-1153.07342	1281.37394	-336.77033	-1124.44099	1180.46985	-341.77483	-1154.75493	1175.27307	-318.57795	-1158.46426	1571.61579	-803.04774	-1219.18555	1382.01110	-741.15502	-1199.38054	1390.88935	-817.23804	-1148.49549	1306.68248	-840.41283	-1109.27087	1180.07508	-834.68036	-1136.06988	1174.42262	-852.71752	-1194.85067	1178.48383	-487.90973	-1189.07990	1175.49280	-677.17592	-1174.74184	1176.20872	-495.47609	-1176.77946	1178.95669	-657.13653	
5	0.04000000	-1212.70597	780.33392	-414.12874	-1181.95710	667.23280	-431.48157	-1258.78606	397.56738	-450.23325	-1307.39555	358.56873	-499.82507	-1144.70110	347.73645	-419.66136	-1109.60261	366.80504	-463.31429	-1208.96783	781.75621	-747.97005	-1173.43869	680.81464	-704.59653	-1261.52932	394.69431	-723.17548	-1305.28045	360.99062	-683.88726	-1138.51747	346.45157	-740.37570	-1101.92991	366.63330	-686.03238	-1195.85724	557.01260	-444.17636	-1236.99631	667.76586	-378.74702	-1267.22734	562.32321	-401.37112	-1223.52796	704.26575	-775.72137	-1238.86594	583.38131	-784.74730	-1116.48019	1076.71726	-427.93579	-1116.15700	968.07277	-423.51479	-1159.21280	942.88064	-378.90662	-1216.90056	1074.46305	-378.86994	-1212.92604	959.72801	-374.55937	-1127.96909	1074.90892	-752.83790	-1121.90332	932.21236	-750.58212	-1233.79178	1071.25736	-791.75189	-1229.36618	930.14386	-780.49365	-1093.95317	1233.94203	-461.14459	-1269.70589	1307.22185	-528.25711	-1090.17152	1234.71910	-706.27727	-1271.30872	1309.20746	-645.84554	-1241.22185	1751.67449	-584.70514	-1190.37081	1715.42746	-430.96354	-1188.37412	1722.14747	-741.84931	-1122.04412	1698.18285	-563.59202	-1120.15857	1694.91835	-606.84199	-1164.54105	1588.02748	-368.45193	-1240.24351	1393.96454	-413.63083	-1206.64549	1397.91794	-347.40058	-1154.14433	1281.43669	-336.16473	-1126.58056	1180.26841	-340.98119	-1156.79657	1175.41061	-317.74328	-1157.55429	1571.76002	-802.95857	-1219.01635	1382.46832	-741.33691	-1199.53436	1391.47171	-817.48728	-1149.47575	1306.99674	-841.11865	-1111.45471	1179.85432	-835.65062	-1138.36445	1174.60784	-853.79618	-1195.16377	1178.55272	-487.85098	-1189.52681	1175.56002	-677.12119	-1175.07200	1176.22783	-495.33600	-1177.27709	1178.95948	-657.10554	
